# Blender 4.1.1
# www.blender.org
mtllib Cat.mtl
o Cube
v 1.000000 -1.000000 -1.000000
v 1.000000 -1.000000 1.000000
v -1.000000 -1.000000 -1.000000
v -1.000000 -1.000000 1.000000
v 0.741567 0.735108 -0.964663
v 0.741567 0.964663 -0.735108
v -0.763291 0.964663 -0.735108
v -0.763291 0.735108 -0.964663
v 0.683109 0.962667 0.728182
v 0.683109 0.728182 0.962667
v -0.664714 0.728182 0.962667
v -0.664714 0.962667 0.728182
v -1.000000 0.699771 -1.000000
v -1.000000 1.000000 -0.699771
v 1.000000 1.000000 -0.699771
v 1.000000 0.699771 -1.000000
v 0.741567 0.810641 -1.040196
v 0.603789 1.005489 -1.040196
v 0.741567 1.040196 -0.810641
v 0.603789 1.040196 -1.005489
v -0.763291 1.040196 -0.810641
v -0.625513 1.040196 -1.005489
v -0.625513 1.005489 -1.040196
v -0.763291 0.810641 -1.040196
v 1.000000 0.690849 1.000000
v 1.000000 1.000000 0.690849
v -1.000000 1.000000 0.690849
v -1.000000 0.690849 1.000000
v 0.683109 1.021784 0.787300
v 0.577478 1.021784 0.936684
v 0.577478 0.936684 1.021784
v 0.683109 0.787300 1.021784
v -0.664714 0.787300 1.021784
v -0.559084 0.936684 1.021784
v -0.664714 1.021784 0.787300
v -0.559084 1.021784 0.936684
v 0.967904 0.508027 -0.451906
v 0.967904 0.508027 -0.466510
v 0.967904 0.460516 -0.498185
v 0.967904 0.358631 -0.498185
v 0.967904 0.319790 -0.475698
v 0.967904 0.316788 -0.441183
v 0.967904 0.348103 -0.409869
v 0.967904 0.426420 -0.404068
v 0.976022 0.533908 0.400722
v 0.976022 0.531031 0.445929
v 0.976022 0.467171 0.367353
v 0.976022 0.373348 0.367353
v 0.976022 0.316672 0.413233
v 0.976022 0.314767 0.458963
v 0.976022 0.346549 0.483267
v 0.976022 0.461595 0.479672
v 0.976022 0.538996 0.403266
v 1.000000 0.588115 -0.406020
v 1.000000 0.588115 -0.509371
v 1.000000 0.484764 -0.578272
v 1.000000 0.337120 -0.578272
v 1.000000 0.243612 -0.524136
v 1.000000 0.233769 -0.410942
v 1.000000 0.312513 -0.332199
v 1.000000 0.445392 -0.322356
v 1.000000 0.567237 0.334064
v 1.000000 0.484764 0.292827
v 1.000000 0.346963 0.292827
v 1.000000 0.243612 0.376492
v 1.000000 0.238691 0.494607
v 1.000000 0.322356 0.558586
v 1.000000 0.479843 0.553664
v 1.000000 0.597396 0.496538
v 1.000000 0.622565 0.361727
v 1.093236 -0.200715 0.121379
v 1.093236 -0.200715 -0.148483
v 1.093236 -0.310489 -0.207751
v 1.093236 -0.461593 -0.102831
v 1.093236 -0.465397 0.096378
v 1.093236 -0.329846 0.164496
v 1.000000 -0.174767 0.140071
v 1.000000 -0.174767 -0.163961
v 1.000000 -0.312191 -0.238158
v 1.000000 -0.487283 -0.116582
v 1.000000 -0.491652 0.112224
v 1.000000 -0.331859 0.192524
v 1.000000 -0.240226 -0.199303
v 1.000000 -0.129308 -0.607210
v 1.000000 -0.254550 -0.612046
v 1.000000 -0.394571 -0.329405
v 1.000000 -0.386969 -0.186235
v 1.000000 -0.407725 -0.577212
v 1.000000 -0.444749 -0.146115
v 1.000000 -0.579751 -0.471462
v 1.010288 -0.305310 -0.217001
v 1.237404 -0.194392 -0.624908
v 1.005904 -0.349481 -0.243907
v 1.240420 -0.291839 -0.617794
v 1.081085 -0.394571 -0.329405
v 1.015160 -0.386969 -0.186235
v 1.119042 -0.407725 -0.577212
v 1.007535 -0.484303 -0.129703
v 1.120701 -0.619304 -0.455049
v 1.000000 -0.252455 0.166011
v 1.000000 -0.198488 0.584026
v 1.000000 -0.317294 0.558963
v 1.000000 -0.389652 0.262368
v 1.000000 -0.368627 0.174047
v 1.000000 -0.461170 0.562852
v 1.000000 -0.452757 0.131769
v 1.000000 -0.597948 0.514103
v 1.017785 -0.304580 0.172740
v 1.193487 -0.250613 0.590756
v 1.010903 -0.385843 0.194669
v 1.159254 -0.371277 0.561109
v 1.058854 -0.389652 0.262368
v 0.964926 -0.368627 0.174047
v 1.126599 -0.461170 0.562852
v 0.996699 -0.504960 0.111945
v 1.148320 -0.650151 0.494279
v 0.967904 0.578181 -0.411712
v 0.967904 0.578181 -0.504055
v 0.967904 0.481757 -0.568339
v 0.967904 0.339788 -0.568339
v 0.967904 0.253061 -0.518128
v 0.967904 0.244066 -0.414693
v 0.967904 0.316927 -0.341832
v 0.967904 0.443039 -0.332491
v 0.790353 0.508027 -0.451906
v 0.790353 0.508027 -0.466510
v 0.790353 0.460516 -0.498185
v 0.790353 0.358631 -0.498185
v 0.790353 0.319790 -0.475698
v 0.790353 0.316788 -0.441183
v 0.790353 0.348103 -0.409869
v 0.790353 0.426420 -0.404068
v 0.976022 0.560210 0.348118
v 0.976022 0.481055 0.308541
v 0.976022 0.352526 0.308541
v 0.976022 0.259017 0.384239
v 0.976022 0.254731 0.487091
v 0.976022 0.327457 0.542705
v 0.976022 0.475995 0.538063
v 0.976022 0.583403 0.485867
v 0.976022 0.604945 0.370486
v 0.704706 0.533908 0.400722
v 0.704706 0.531031 0.445929
v 0.704706 0.467171 0.367353
v 0.704706 0.373348 0.367353
v 0.704706 0.316672 0.413233
v 0.704706 0.314767 0.458963
v 0.704706 0.346549 0.483267
v 0.704706 0.461595 0.479672
v 0.704706 0.538996 0.403266
v 1.000000 -0.489582 0.003851
v 1.000000 -0.605135 0.267755
v 1.000000 -0.683978 0.189879
v 1.000000 -0.683321 0.037233
v 1.000000 -0.578440 -0.004399
v 1.000000 -0.689010 -0.080577
v 1.000000 -0.684189 -0.238155
v 1.000000 -0.629506 -0.306283
v 1.036139 -0.489582 0.003851
v 1.036139 -0.605135 0.267755
v 1.036139 -0.683978 0.189879
v 1.036139 -0.683321 0.037233
v 1.036139 -0.578440 -0.004399
v 1.036139 -0.689010 -0.080577
v 1.036139 -0.684189 -0.238155
v 1.036139 -0.629506 -0.306283
vn -0.0000 1.0000 -0.0000
vn -0.0000 -1.0000 -0.0000
vn -1.0000 -0.0000 -0.0000
vn -0.0000 -0.0000 1.0000
vn -0.0000 0.7071 0.7071
vn -0.0000 -0.0000 -1.0000
vn -0.0000 -0.7071 0.7071
vn 1.0000 -0.0000 -0.0000
vn -0.0000 0.7071 -0.7071
vn -0.0000 -0.7071 -0.7071
vn -0.7071 0.5000 -0.5000
vn 0.7071 0.5000 -0.5000
vn 0.7071 0.5000 0.5000
vn -0.7071 0.5000 0.5000
vn -0.0000 0.0739 -0.9973
vn -0.0000 0.6292 0.7772
vn 0.2957 -0.9553 -0.0000
vn 0.2957 -0.5299 0.7949
vn 0.2957 -0.0000 0.9553
vn 0.2957 0.4786 0.8267
vn 0.2957 0.9517 0.0828
vn 0.2957 0.6755 -0.6755
vn 0.2957 0.0706 -0.9527
vn 0.2957 -0.4831 -0.8241
vn 0.5481 -0.3740 0.7481
vn 0.5481 -0.0000 0.8364
vn 0.5481 0.5263 0.6501
vn 0.5481 0.8357 0.0348
vn 0.5481 0.5081 -0.6644
vn 0.5481 -0.0261 -0.8360
vn 0.5481 -0.3656 -0.7523
vn 0.5481 -0.8222 -0.1535
vn 0.5481 -0.3741 0.7481
vn 0.2681 0.9634 -0.0000
vn 0.2681 0.4577 -0.8477
vn 0.2681 -0.5495 -0.7913
vn 0.2681 -0.9632 -0.0184
vn 0.2681 -0.4326 0.8608
vn 0.2681 0.3051 0.9138
vn -0.4744 -0.8071 -0.3515
vn -0.2917 -0.9273 -0.2344
vn -0.0000 -0.9986 0.0530
vn -0.0000 0.9986 -0.0530
vn 0.5532 0.7991 -0.2354
vn -0.4435 -0.8723 0.2058
vn -0.5329 -0.8343 0.1410
vn -0.0000 -0.9728 -0.2316
vn -0.0000 -0.9728 -0.2315
vn 0.6063 0.7759 0.1744
vn -0.0000 0.9962 0.0866
vn -0.0000 -0.5057 -0.8627
vn -0.0000 0.5010 0.8654
vn -0.0000 -0.5547 0.8320
vn -0.0000 -0.4371 -0.8994
vn -0.0000 0.9991 0.0416
vn -0.0000 -0.4472 0.8944
vn -0.0000 -0.9830 -0.1835
vn -0.0000 0.6075 -0.7944
vn -0.0000 -0.0312 -0.9995
vn -0.0000 -0.9995 -0.0306
vn -0.0000 -0.3689 -0.9295
vn -0.0000 -0.7027 0.7115
vn -0.0000 -0.7799 -0.6260
vn -0.0000 -0.5673 0.8235
vn -0.0000 -1.0000 -0.0043
vn -0.0000 0.9160 0.4011
vn -0.0000 0.9115 -0.4113
vt 0.625000 0.537529
vt 0.875000 0.537529
vt 0.875000 0.711356
vt 0.625000 0.711356
vt 0.125000 0.500000
vt 0.375000 0.500000
vt 0.375000 0.750000
vt 0.125000 0.750000
vt 0.375000 0.000000
vt 0.586356 0.000000
vt 0.625000 0.038644
vt 0.625000 0.212471
vt 0.587471 0.250000
vt 0.375000 0.250000
vt 0.586356 0.750000
vt 0.586356 1.000000
vt 0.375000 1.000000
vt 0.620583 0.256247
vt 0.620583 0.493753
vt 0.620583 0.493753
vt 0.587471 0.500000
vt 0.591023 0.993400
vt 0.591023 0.756600
vt 0.468181 0.548494
vt 0.449034 0.552849
vt 0.450679 0.583824
vt 0.591888 0.256247
vt 0.625000 0.250000
vt 0.625000 0.500000
vt 0.591889 0.493753
vt 0.591888 0.256247
vt 0.608405 0.277992
vt 0.604066 0.277992
vt 0.608405 0.472008
vt 0.604066 0.472008
vt 0.620333 0.756600
vt 0.625000 0.750000
vt 0.620333 0.993400
vt 0.625000 1.000000
vt 0.610997 0.775158
vt 0.610997 0.974842
vt 0.600359 0.974842
vt 0.600359 0.775158
vt 0.574675 0.687067
vt 0.577821 0.670216
vt 0.570905 0.666758
vt 0.555674 0.584706
vt 0.573514 0.574247
vt 0.573514 0.561329
vt 0.560596 0.552716
vt 0.553303 0.574492
vt 0.543513 0.573766
vt 0.539584 0.676654
vt 0.546668 0.670919
vt 0.572273 0.573536
vt 0.572273 0.561993
vt 0.560220 0.553958
vt 0.542474 0.553958
vt 0.542140 0.552716
vt 0.531633 0.560234
vt 0.530452 0.559483
vt 0.530508 0.573163
vt 0.529221 0.573632
vt 0.539616 0.582271
vt 0.539064 0.583475
vt 0.555380 0.583439
vt 0.570026 0.668515
vt 0.560132 0.663567
vt 0.560596 0.661603
vt 0.544066 0.663568
vt 0.543370 0.661603
vt 0.532377 0.673030
vt 0.530452 0.672062
vt 0.531841 0.685886
vt 0.529836 0.686826
vt 0.540932 0.692838
vt 0.540294 0.694823
vt 0.559499 0.692258
vt 0.559980 0.694208
vt 0.572926 0.685733
vt 0.575618 0.671311
vt 0.461189 0.599031
vt 0.474911 0.606440
vt 0.474911 0.640172
vt 0.458769 0.645562
vt 0.441825 0.637047
vt 0.442301 0.612146
vt 0.439090 0.610427
vt 0.438802 0.625481
vt 0.421312 0.586715
vt 0.427531 0.566067
vt 0.444406 0.606736
vt 0.478154 0.604505
vt 0.478154 0.642509
vt 0.460976 0.595230
vt 0.469972 0.600087
vt 0.451629 0.601721
vt 0.438544 0.639028
vt 0.458518 0.649065
vt 0.453922 0.646756
vt 0.443405 0.641471
vt 0.468443 0.645751
vt 0.483837 0.549099
vt 0.475189 0.698003
vt 0.460338 0.694870
vt 0.442354 0.695356
vt 0.451293 0.657796
vt 0.425256 0.689263
vt 0.563503 0.568512
vt 0.563504 0.566686
vt 0.557564 0.562727
vt 0.544829 0.562727
vt 0.539974 0.565538
vt 0.539599 0.569852
vt 0.566739 0.675090
vt 0.558396 0.670919
vt 0.539346 0.682370
vt 0.543319 0.685408
vt 0.557699 0.684959
vt 0.566379 0.680741
vt 0.567374 0.675408
vt 0.424358 0.658469
vt 0.414503 0.648735
vt 0.414585 0.629654
vt 0.427695 0.624450
vt 0.413874 0.614928
vt 0.414476 0.595231
s 0
usemtl Material
f 15/1/1 14/2/1 27/3/1 26/4/1
f 3/5/2 1/6/2 2/7/2 4/8/2
f 4/9/3 28/10/3 27/11/3 14/12/3 13/13/3 3/14/3
f 2/7/4 25/15/4 28/16/4 4/17/4
f 7/18/5 6/19/5 19/20/5 21/18/5
f 3/14/6 13/13/6 16/21/6 1/6/6
f 11/22/7 10/23/7 32/23/7 33/22/7
f 1/6/8 85/24/8 88/25/8 86/26/8
f 7/18/9 8/27/9 13/13/9 14/28/9
f 6/19/9 7/18/9 14/28/9 15/29/9
f 5/30/9 6/19/9 15/29/9 16/21/9
f 8/27/9 5/30/9 16/21/9 13/13/9
f 5/30/10 8/27/10 24/31/10 17/30/10
f 6/19/8 5/30/8 17/30/8 19/19/8
f 8/27/3 7/18/3 21/18/3 24/27/3
f 24/27/11 21/18/11 22/32/11 23/33/11
f 21/18/1 19/20/1 20/34/1 22/32/1
f 19/19/12 17/30/12 18/35/12 20/34/12
f 17/30/6 24/31/6 23/33/6 18/35/6
f 22/32/9 20/34/9 18/35/9 23/33/9
f 9/36/5 10/23/5 25/15/5 26/37/5
f 12/38/5 9/36/5 26/37/5 27/39/5
f 11/22/5 12/38/5 27/39/5 28/16/5
f 10/23/5 11/22/5 28/16/5 25/15/5
f 9/36/9 12/38/9 35/38/9 29/36/9
f 30/40/5 36/41/5 34/42/5 31/43/5
f 12/38/3 11/22/3 33/22/3 35/38/3
f 32/23/13 29/36/13 30/40/13 31/43/13
f 29/36/1 35/38/1 36/41/1 30/40/1
f 35/38/14 33/22/14 34/42/14 36/41/14
f 33/22/4 32/23/4 31/43/4 34/42/4
f 10/23/8 9/36/8 29/36/8 32/23/8
f 25/15/8 69/44/8 70/45/8 62/46/8 61/47/8 54/48/8 55/49/8 56/50/8 16/21/8 15/1/8 26/4/8
f 44/51/15 43/52/15 131/52/15 132/51/15
f 49/53/16 48/54/16 145/54/16 146/53/16
f 117/55/17 118/56/17 55/49/17 54/48/17
f 118/56/18 119/57/18 56/50/18 55/49/18
f 119/57/19 120/58/19 57/59/19 56/50/19
f 120/58/20 121/60/20 58/61/20 57/59/20
f 121/60/21 122/62/21 59/63/21 58/61/21
f 122/62/22 123/64/22 60/65/22 59/63/22
f 123/64/23 124/66/23 61/47/23 60/65/23
f 124/66/24 117/55/24 54/48/24 61/47/24
f 133/67/25 134/68/25 63/69/25 62/46/25
f 134/68/26 135/70/26 64/71/26 63/69/26
f 135/70/27 136/72/27 65/73/27 64/71/27
f 136/72/28 137/74/28 66/75/28 65/73/28
f 137/74/29 138/76/29 67/77/29 66/75/29
f 138/76/30 139/78/30 68/79/30 67/77/30
f 139/78/31 140/80/31 69/44/31 68/79/31
f 140/80/32 141/81/32 70/45/32 69/44/32
f 141/81/33 133/67/33 62/46/33 70/45/33
f 73/82/8 72/83/8 71/84/8 76/85/8 75/86/8 74/87/8
f 80/88/8 151/89/8 158/90/8 90/91/8 89/92/8
f 71/84/34 72/83/34 78/93/34 77/94/34
f 72/83/35 73/82/35 79/95/35 83/96/35 78/93/35
f 73/82/36 74/87/36 80/88/36 89/92/36 87/97/36 79/95/36
f 74/87/37 75/86/37 81/98/37 151/89/37 80/88/37
f 75/86/38 76/85/38 82/99/38 104/100/38 106/101/38 81/98/38
f 76/85/39 71/84/39 77/94/39 100/102/39 82/99/39
f 84/103/8 16/21/8 56/50/8 57/59/8 58/61/8 59/63/8 60/65/8 61/47/8 62/46/8 63/69/8 64/71/8 65/73/8 66/75/8 67/77/8 68/79/8 69/44/8 25/15/8 2/7/8 101/104/8 100/102/8 77/94/8 78/93/8 83/96/8
f 79/95/8 85/24/8 1/6/8 16/21/8 84/103/8 83/96/8
f 86/26/8 88/25/8 85/24/8 79/95/8
f 87/97/8 86/26/8 79/95/8
f 90/91/8 1/6/8 86/26/8 87/97/8 89/92/8
f 83/96/40 84/103/40 92/103/40 91/96/40
f 79/95/41 85/24/41 94/24/41 93/95/41
f 87/97/42 86/26/42 95/26/42 96/97/42
f 88/25/43 86/26/43 95/26/43 97/25/43
f 90/91/44 89/92/44 98/92/44 99/91/44
f 101/104/45 100/102/45 108/102/45 109/104/45
f 100/102/8 101/104/8 102/105/8 82/99/8
f 82/99/8 102/105/8 101/104/8 105/106/8 103/107/8
f 103/107/8 105/106/8 101/104/8 2/7/8 107/108/8
f 103/107/8 104/100/8 82/99/8
f 107/108/8 106/101/8 104/100/8 103/107/8
f 102/105/46 82/99/46 110/99/46 111/105/46
f 103/107/47 104/100/47 113/100/47 112/107/47
f 105/106/48 103/107/48 112/107/48 114/106/48
f 106/101/49 107/108/49 116/108/49 115/101/49
f 37/109/8 38/110/8 118/56/8 117/55/8
f 38/110/8 39/111/8 119/57/8 118/56/8
f 39/111/8 40/112/8 120/58/8 119/57/8
f 40/112/8 41/113/8 121/60/8 120/58/8
f 41/113/8 42/114/8 122/62/8 121/60/8
f 42/114/8 43/52/8 123/64/8 122/62/8
f 43/52/8 44/51/8 124/66/8 123/64/8
f 44/51/8 37/109/8 117/55/8 124/66/8
f 126/110/8 125/109/8 132/51/8 131/52/8 130/114/8 129/113/8 128/112/8 127/111/8
f 42/114/50 41/113/50 129/113/50 130/114/50
f 40/112/4 39/111/4 127/111/4 128/112/4
f 38/110/2 37/109/2 125/109/2 126/110/2
f 37/109/51 44/51/51 132/51/51 125/109/51
f 43/52/9 42/114/9 130/114/9 131/52/9
f 41/113/52 40/112/52 128/112/52 129/113/52
f 39/111/53 38/110/53 126/110/53 127/111/53
f 45/115/8 47/116/8 134/68/8 133/67/8
f 47/116/8 48/54/8 135/70/8 134/68/8
f 48/54/8 49/53/8 136/72/8 135/70/8
f 49/53/8 50/117/8 137/74/8 136/72/8
f 50/117/8 51/118/8 138/76/8 137/74/8
f 51/118/8 52/119/8 139/78/8 138/76/8
f 52/119/8 46/120/8 140/80/8 139/78/8
f 46/120/8 53/121/8 141/81/8 140/80/8
f 53/121/8 45/115/8 133/67/8 141/81/8
f 142/115/8 150/121/8 143/120/8 149/119/8 148/118/8 147/117/8 146/53/8 145/54/8 144/116/8
f 46/120/54 52/119/54 149/119/54 143/120/54
f 50/117/55 49/53/55 146/53/55 147/117/55
f 47/116/56 45/115/56 142/115/56 144/116/56
f 53/121/57 46/120/57 143/120/57 150/121/57
f 51/118/58 50/117/58 147/117/58 148/118/58
f 48/54/4 47/116/4 144/116/4 145/54/4
f 45/115/56 53/121/56 150/121/56 142/115/56
f 52/119/59 51/118/59 148/118/59 149/119/59
f 160/122/8 161/123/8 162/124/8 163/125/8 164/126/8 165/127/8 166/90/8 159/89/8
f 90/91/8 158/90/8 157/127/8 156/126/8 155/125/8 154/124/8 153/123/8 152/122/8 107/108/8 2/7/8 1/6/8
f 107/108/8 152/122/8 151/89/8 81/98/8 106/101/8
f 156/126/60 157/127/60 165/127/60 164/126/60
f 154/124/61 155/125/61 163/125/61 162/124/61
f 152/122/62 153/123/62 161/123/62 160/122/62
f 157/127/63 158/90/63 166/90/63 165/127/63
f 155/125/64 156/126/64 164/126/64 163/125/64
f 153/123/65 154/124/65 162/124/65 161/123/65
f 151/89/66 152/122/66 160/122/66 159/89/66
f 158/90/67 151/89/67 159/89/67 166/90/67
l 83 77
l 89 81
