# Blender 4.1.1
# www.blender.org
mtllib Ship.mtl
o Cube
v 0.175672 -0.556070 0.050840
v 1.024286 -0.649187 1.032654
v 0.175672 -0.556070 -0.037389
v 1.024286 -0.649187 -0.967346
v -0.127100 -0.556070 0.049927
v -0.975714 -0.649187 1.032654
v -0.127100 -0.556070 -0.047090
v -0.975714 -0.649187 -0.967346
v 0.023799 -1.299805 1.889953
v 0.025091 -0.556070 0.155382
v 0.007301 -1.299805 -1.659856
v 0.014384 -0.556070 -0.146983
v 1.024286 -0.474502 -0.967346
v 1.024286 -0.474502 1.032654
v 0.005125 -0.474502 -1.659856
v -0.975714 -0.474502 1.032654
v -0.975714 -0.474502 -0.967346
v 0.026084 -0.474502 1.889953
v 0.898437 -0.556070 -0.900706
v 0.898437 -0.556070 0.974847
v 0.006498 -0.556070 -1.506770
v -0.849865 -0.556070 0.974711
v -0.849865 -0.556070 -0.902144
v 0.025936 -0.556070 1.724187
v 0.014384 0.777068 -0.146983
v -0.127100 0.777068 -0.047090
v 0.175672 0.777068 -0.037389
v 0.014384 -0.111699 -0.146983
v -0.127100 -0.111699 -0.047090
v 0.175672 -0.111699 -0.037389
v 0.091370 1.165367 0.006741
v 0.175672 1.081065 0.050840
v 0.175672 1.081065 -0.037389
v 0.091370 1.165367 0.007250
v -0.127100 1.081065 0.049927
v -0.042798 1.165367 0.005779
v -0.042798 1.165367 -0.003414
v -0.127100 1.081065 -0.047090
v 0.025091 1.081065 0.155382
v 0.025044 1.165367 0.052788
v 0.014384 1.081065 -0.146983
v 0.015304 1.165367 -0.044436
v 0.012583 0.777068 -0.347749
v -0.973038 0.777068 -0.247856
v 1.028292 0.777068 -0.238156
v 0.012583 -0.111699 -0.347749
v -0.973038 -0.111699 -0.247856
v 1.028292 -0.111699 -0.238156
vn 1.0000 -0.0000 -0.0000
vn 0.5622 0.0012 -0.8270
vn -1.0000 -0.0000 -0.0000
vn -0.6503 0.0015 0.7596
vn 0.5620 -0.0000 -0.8271
vn -0.5488 -0.8359 0.0016
vn 0.6514 -0.0015 0.7587
vn 0.5419 -0.8404 -0.0016
vn -0.5766 -0.0013 -0.8170
vn -0.5439 0.8392 -0.0000
vn -0.3057 0.8392 0.4499
vn 0.5439 0.8392 -0.0000
vn 0.3536 0.8392 -0.4132
vn -0.3544 0.8392 -0.4126
vn 0.3137 0.8392 0.4443
vn -0.0000 1.0000 -0.0000
vn 0.5703 -0.0000 0.8214
vn -0.5768 -0.0000 -0.8169
vn -0.5695 -0.0000 0.8220
vn 0.7071 0.7071 -0.0000
vn 0.3974 0.7071 -0.5849
vn -0.7071 0.7071 -0.0000
vn -0.4027 0.7071 0.5812
vn 0.4033 0.7071 0.5808
vn -0.4078 0.7071 -0.5776
vn -0.0000 -1.0000 -0.0000
vn -0.1008 -0.0000 -0.9949
vn 0.1073 -0.0000 -0.9942
vn -0.2309 -0.0000 0.9730
vn 0.2292 -0.0000 0.9734
vt 0.375000 0.000000
vt 0.625000 0.000000
vt 0.625000 0.250000
vt 0.375000 0.250000
vt 0.625000 0.377123
vt 0.375000 0.377395
vt 0.375000 0.500000
vt 0.625000 0.500000
vt 0.625000 0.750000
vt 0.375000 0.750000
vt 0.625000 0.874324
vt 0.375000 0.874609
vt 0.231107 0.568978
vt 0.251265 0.559670
vt 0.747877 0.500000
vt 0.749324 0.750000
vt 0.625000 1.000000
vt 0.375000 1.000000
vt 0.875000 0.500000
vt 0.875000 0.750000
vt 0.140735 0.513194
vt 0.140768 0.736864
vt 0.125000 0.750000
vt 0.125000 0.500000
vt 0.252226 0.504986
vt 0.252395 0.500000
vt 0.359306 0.736864
vt 0.359273 0.513160
vt 0.250316 0.745845
vt 0.250390 0.750000
vt 0.231203 0.683639
vt 0.269049 0.683571
vt 0.268953 0.568149
vt 0.250055 0.694074
vt 0.269049 0.683571
vt 0.241698 0.627319
vt 0.241697 0.626949
vt 0.251182 0.599374
vt 0.258470 0.628674
vt 0.258464 0.622264
vt 0.250015 0.653621
s 0
f 14/1/1 2/2/1 4/3/1 13/4/1
f 13/4/2 4/3/2 11/5/2 15/6/2
f 17/7/3 8/8/3 6/9/3 16/10/3
f 16/10/4 6/9/4 9/11/4 18/12/4
f 3/13/5 12/14/5 28/14/5 30/13/5
f 8/8/6 11/15/6 9/16/6 6/9/6
f 18/12/7 9/11/7 2/17/7 14/18/7
f 9/16/8 11/15/8 4/19/8 2/20/8
f 15/6/9 11/5/9 8/8/9 17/7/9
f 19/21/10 20/22/10 14/23/10 13/24/10
f 21/25/11 19/21/11 13/24/11 15/26/11
f 22/27/12 23/28/12 17/7/12 16/10/12
f 24/29/13 22/27/13 16/10/13 18/30/13
f 20/22/14 24/29/14 18/30/14 14/23/14
f 23/28/15 21/25/15 15/26/15 17/7/15
f 3/13/16 1/31/16 20/22/16 19/21/16
f 12/14/16 3/13/16 19/21/16 21/25/16
f 5/32/16 7/33/16 23/28/16 22/27/16
f 10/34/16 5/32/16 22/27/16 24/29/16
f 1/31/16 10/34/16 24/29/16 20/22/16
f 7/33/16 12/14/16 21/25/16 23/28/16
f 10/34/17 1/31/17 32/31/17 39/34/17
f 12/14/18 7/33/18 29/33/18 28/14/18
f 7/33/3 5/32/3 35/32/3 38/33/3 26/33/3 29/33/3
f 1/31/1 3/13/1 30/13/1 27/13/1 33/13/1 32/31/1
f 5/32/19 10/34/19 39/34/19 35/35/19
f 34/36/20 31/37/20 32/31/20 33/13/20
f 42/38/21 34/36/21 33/13/21 41/14/21
f 36/39/22 37/40/22 38/33/22 35/32/22
f 40/41/23 36/39/23 35/35/23 39/34/23
f 31/37/24 40/41/24 39/34/24 32/31/24
f 37/40/25 42/38/25 41/14/25 38/33/25
f 34/36/16 42/38/16 37/40/16 36/39/16 40/41/16 31/37/16
f 28/14/26 29/33/26 47/33/26 46/14/26
f 25/14/16 27/13/16 45/13/16 43/14/16
f 25/14/18 26/33/18 38/33/18 41/14/18
f 27/13/5 25/14/5 41/14/5 33/13/5
f 46/14/27 47/33/27 44/33/27 43/14/27
f 48/13/28 46/14/28 43/14/28 45/13/28
f 29/33/29 26/33/29 44/33/29 47/33/29
f 27/13/30 30/13/30 48/13/30 45/13/30
f 26/33/16 25/14/16 43/14/16 44/33/16
f 30/13/26 28/14/26 46/14/26 48/13/26
