# Blender 4.1.1
# www.blender.org
mtllib Simple Hat.mtl
o Cylinder
v 0.000000 -1.000000 -1.000000
v 0.000000 1.000000 -1.000000
v 0.195090 -1.000000 -0.980785
v 0.195090 1.000000 -0.980785
v 0.382683 -1.000000 -0.923880
v 0.382683 1.000000 -0.923880
v 0.555570 -1.000000 -0.831470
v 0.555570 1.000000 -0.831470
v 0.707107 -1.000000 -0.707107
v 0.707107 1.000000 -0.707107
v 0.831470 -1.000000 -0.555570
v 0.831470 1.000000 -0.555570
v 0.923880 -1.000000 -0.382683
v 0.923880 1.000000 -0.382683
v 0.980785 -1.000000 -0.195090
v 0.980785 1.000000 -0.195090
v 1.000000 -1.000000 0.000000
v 1.000000 1.000000 0.000000
v 0.980785 -1.000000 0.195090
v 0.980785 1.000000 0.195090
v 0.923880 -1.000000 0.382683
v 0.923880 1.000000 0.382683
v 0.831470 -1.000000 0.555570
v 0.831470 1.000000 0.555570
v 0.707107 -1.000000 0.707107
v 0.707107 1.000000 0.707107
v 0.555570 -1.000000 0.831470
v 0.555570 1.000000 0.831470
v 0.382683 -1.000000 0.923880
v 0.382683 1.000000 0.923880
v 0.195090 -1.000000 0.980785
v 0.195090 1.000000 0.980785
v 0.000000 -1.000000 1.000000
v 0.000000 1.000000 1.000000
v -0.195090 -1.000000 0.980785
v -0.195090 1.000000 0.980785
v -0.382683 -1.000000 0.923880
v -0.382683 1.000000 0.923880
v -0.555570 -1.000000 0.831470
v -0.555570 1.000000 0.831470
v -0.707107 -1.000000 0.707107
v -0.707107 1.000000 0.707107
v -0.831470 -1.000000 0.555570
v -0.831470 1.000000 0.555570
v -0.923880 -1.000000 0.382683
v -0.923880 1.000000 0.382683
v -0.980785 -1.000000 0.195090
v -0.980785 1.000000 0.195090
v -1.000000 -1.000000 0.000000
v -1.000000 1.000000 0.000000
v -0.980785 -1.000000 -0.195090
v -0.980785 1.000000 -0.195090
v -0.923880 -1.000000 -0.382683
v -0.923880 1.000000 -0.382683
v -0.831470 -1.000000 -0.555570
v -0.831470 1.000000 -0.555570
v -0.707107 -1.000000 -0.707107
v -0.707107 1.000000 -0.707107
v -0.555570 -1.000000 -0.831470
v -0.555570 1.000000 -0.831470
v -0.382683 -1.000000 -0.923880
v -0.382683 1.000000 -0.923880
v -0.195090 -1.000000 -0.980785
v -0.195090 1.000000 -0.980785
v -0.000000 -0.974397 -0.841978
v 0.164262 -0.974397 -0.825799
v 0.322211 -0.974397 -0.777886
v 0.467778 -0.974397 -0.700079
v 0.595368 -0.974397 -0.595368
v 0.700079 -0.974397 -0.467778
v 0.777886 -0.974397 -0.322211
v 0.825799 -0.974397 -0.164262
v 0.841978 -0.974397 0.000000
v 0.825799 -0.974397 0.164262
v 0.777886 -0.974397 0.322211
v 0.700079 -0.974397 0.467778
v 0.595368 -0.974397 0.595368
v 0.467778 -0.974397 0.700079
v 0.322211 -0.974397 0.777886
v 0.164262 -0.974397 0.825799
v -0.000000 -0.974397 0.841978
v -0.164262 -0.974397 0.825799
v -0.322211 -0.974397 0.777886
v -0.467778 -0.974397 0.700079
v -0.595368 -0.974397 0.595368
v -0.700079 -0.974397 0.467778
v -0.777886 -0.974397 0.322211
v -0.825799 -0.974397 0.164262
v -0.841978 -0.974397 0.000000
v -0.825799 -0.974397 -0.164262
v -0.777886 -0.974397 -0.322211
v -0.700079 -0.974397 -0.467778
v -0.595368 -0.974397 -0.595368
v -0.467778 -0.974397 -0.700079
v -0.322211 -0.974397 -0.777886
v -0.164262 -0.974397 -0.825799
v -0.000000 -1.281818 -1.357332
v 0.264802 -1.281818 -1.331251
v 0.519428 -1.281818 -1.254011
v 0.754093 -1.281818 -1.128580
v 0.959778 -1.281818 -0.959778
v 1.128580 -1.281818 -0.754093
v 1.254011 -1.281818 -0.519428
v 1.331251 -1.281818 -0.264802
v 1.357332 -1.281818 0.000000
v 1.331251 -1.281818 0.264802
v 1.254011 -1.281818 0.519428
v 1.128580 -1.281818 0.754093
v 0.959778 -1.281818 0.959778
v 0.754093 -1.281818 1.128580
v 0.519428 -1.281818 1.254011
v 0.264802 -1.281818 1.331251
v -0.000000 -1.281818 1.357332
v -0.264802 -1.281818 1.331251
v -0.519428 -1.281818 1.254011
v -0.754093 -1.281818 1.128580
v -0.959778 -1.281818 0.959778
v -1.128580 -1.281818 0.754093
v -1.254011 -1.281818 0.519428
v -1.331251 -1.281818 0.264802
v -1.357332 -1.281818 0.000000
v -1.331251 -1.281818 -0.264802
v -1.254011 -1.281818 -0.519428
v -1.128580 -1.281818 -0.754093
v -0.959778 -1.281818 -0.959778
v -0.754093 -1.281818 -1.128580
v -0.519428 -1.281818 -1.254011
v -0.264802 -1.281818 -1.331251
vn 0.0980 -0.0000 -0.9952
vn 0.2903 -0.0000 -0.9569
vn 0.4714 -0.0000 -0.8819
vn 0.6344 -0.0000 -0.7730
vn 0.7730 -0.0000 -0.6344
vn 0.8819 -0.0000 -0.4714
vn 0.9569 -0.0000 -0.2903
vn 0.9952 -0.0000 -0.0980
vn 0.9952 -0.0000 0.0980
vn 0.9569 -0.0000 0.2903
vn 0.8819 -0.0000 0.4714
vn 0.7730 -0.0000 0.6344
vn 0.6344 -0.0000 0.7730
vn 0.4714 -0.0000 0.8819
vn 0.2903 -0.0000 0.9569
vn 0.0980 -0.0000 0.9952
vn -0.0980 -0.0000 0.9952
vn -0.2903 -0.0000 0.9569
vn -0.4714 -0.0000 0.8819
vn -0.6344 -0.0000 0.7730
vn -0.7730 -0.0000 0.6344
vn -0.8819 -0.0000 0.4714
vn -0.9569 -0.0000 0.2903
vn -0.9952 -0.0000 0.0980
vn -0.9952 -0.0000 -0.0980
vn -0.9569 -0.0000 -0.2903
vn -0.8819 -0.0000 -0.4714
vn -0.7730 -0.0000 -0.6344
vn -0.6344 -0.0000 -0.7730
vn -0.4714 -0.0000 -0.8819
vn -0.0000 1.0000 -0.0000
vn -0.2903 -0.0000 -0.9569
vn -0.0980 -0.0000 -0.9952
vn 0.2928 0.7837 -0.5478
vn -0.0000 -1.0000 -0.0000
vn 0.4801 0.7837 0.3940
vn -0.4801 0.7837 0.3940
vn -0.2928 0.7837 -0.5478
vn 0.6181 0.7837 -0.0609
vn -0.0609 0.7837 0.6181
vn -0.5944 0.7837 -0.1803
vn 0.3940 0.7837 -0.4801
vn 0.3940 0.7837 0.4801
vn -0.5478 0.7837 0.2928
vn -0.1803 0.7837 -0.5944
vn 0.6181 0.7837 0.0609
vn -0.1803 0.7837 0.5944
vn -0.5478 0.7837 -0.2928
vn 0.4801 0.7837 -0.3940
vn 0.2928 0.7837 0.5478
vn -0.5944 0.7837 0.1803
vn 0.0609 0.7837 -0.6181
vn -0.0609 0.7837 -0.6181
vn 0.5944 0.7837 0.1803
vn -0.2928 0.7837 0.5478
vn -0.4801 0.7837 -0.3940
vn 0.5478 0.7837 -0.2928
vn 0.1803 0.7837 0.5944
vn -0.6181 0.7837 0.0609
vn 0.1803 0.7837 -0.5944
vn 0.5478 0.7837 0.2928
vn -0.3940 0.7837 0.4801
vn -0.3940 0.7837 -0.4801
vn 0.5944 0.7837 -0.1803
vn 0.0609 0.7837 0.6181
vn -0.6181 0.7837 -0.0609
vn -0.0504 -0.8577 0.5116
vn -0.1492 -0.8577 0.4920
vn -0.2424 -0.8577 0.4534
vn -0.3262 -0.8577 0.3974
vn -0.3974 -0.8577 0.3262
vn -0.4534 -0.8577 0.2424
vn -0.4920 -0.8577 0.1492
vn -0.5116 -0.8577 0.0504
vn -0.5116 -0.8577 -0.0504
vn -0.4920 -0.8577 -0.1492
vn -0.4534 -0.8577 -0.2424
vn -0.3974 -0.8577 -0.3262
vn -0.3262 -0.8577 -0.3974
vn -0.2424 -0.8577 -0.4534
vn -0.1492 -0.8577 -0.4920
vn -0.0504 -0.8577 -0.5116
vn 0.0504 -0.8577 -0.5116
vn 0.1492 -0.8577 -0.4920
vn 0.2424 -0.8577 -0.4534
vn 0.3262 -0.8577 -0.3974
vn 0.3974 -0.8577 -0.3262
vn 0.4534 -0.8577 -0.2424
vn 0.4920 -0.8577 -0.1492
vn 0.5116 -0.8577 -0.0504
vn 0.5116 -0.8577 0.0504
vn 0.4920 -0.8577 0.1492
vn 0.4534 -0.8577 0.2424
vn 0.3974 -0.8577 0.3262
vn 0.3262 -0.8577 0.3974
vn 0.2424 -0.8577 0.4534
vn 0.1492 -0.8577 0.4920
vn 0.0504 -0.8577 0.5116
vt 1.000000 0.500000
vt 1.000000 1.000000
vt 0.968750 1.000000
vt 0.968750 0.500000
vt 0.937500 1.000000
vt 0.937500 0.500000
vt 0.906250 1.000000
vt 0.906250 0.500000
vt 0.875000 1.000000
vt 0.875000 0.500000
vt 0.843750 1.000000
vt 0.843750 0.500000
vt 0.812500 1.000000
vt 0.812500 0.500000
vt 0.781250 1.000000
vt 0.781250 0.500000
vt 0.750000 1.000000
vt 0.750000 0.500000
vt 0.718750 1.000000
vt 0.718750 0.500000
vt 0.687500 1.000000
vt 0.687500 0.500000
vt 0.656250 1.000000
vt 0.656250 0.500000
vt 0.625000 1.000000
vt 0.625000 0.500000
vt 0.593750 1.000000
vt 0.593750 0.500000
vt 0.562500 1.000000
vt 0.562500 0.500000
vt 0.531250 1.000000
vt 0.531250 0.500000
vt 0.500000 1.000000
vt 0.500000 0.500000
vt 0.468750 1.000000
vt 0.468750 0.500000
vt 0.437500 1.000000
vt 0.437500 0.500000
vt 0.406250 1.000000
vt 0.406250 0.500000
vt 0.375000 1.000000
vt 0.375000 0.500000
vt 0.343750 1.000000
vt 0.343750 0.500000
vt 0.312500 1.000000
vt 0.312500 0.500000
vt 0.281250 1.000000
vt 0.281250 0.500000
vt 0.250000 1.000000
vt 0.250000 0.500000
vt 0.218750 1.000000
vt 0.218750 0.500000
vt 0.187500 1.000000
vt 0.187500 0.500000
vt 0.156250 1.000000
vt 0.156250 0.500000
vt 0.125000 1.000000
vt 0.125000 0.500000
vt 0.093750 1.000000
vt 0.093750 0.500000
vt 0.062500 1.000000
vt 0.062500 0.500000
vt 0.296822 0.485388
vt 0.250000 0.490000
vt 0.203178 0.485388
vt 0.158156 0.471731
vt 0.116663 0.449553
vt 0.080294 0.419706
vt 0.050447 0.383337
vt 0.028269 0.341844
vt 0.014612 0.296822
vt 0.010000 0.250000
vt 0.014612 0.203178
vt 0.028269 0.158156
vt 0.050447 0.116663
vt 0.080294 0.080294
vt 0.116663 0.050447
vt 0.158156 0.028269
vt 0.203178 0.014612
vt 0.250000 0.010000
vt 0.296822 0.014612
vt 0.341844 0.028269
vt 0.383337 0.050447
vt 0.419706 0.080294
vt 0.449553 0.116663
vt 0.471731 0.158156
vt 0.485388 0.203178
vt 0.490000 0.250000
vt 0.485388 0.296822
vt 0.471731 0.341844
vt 0.449553 0.383337
vt 0.419706 0.419706
vt 0.383337 0.449553
vt 0.341844 0.471731
vt 0.031250 1.000000
vt 0.031250 0.500000
vt 0.000000 1.000000
vt 0.000000 0.500000
vt 0.750000 0.452074
vt 0.789423 0.448192
vt 0.827331 0.436693
vt 0.862267 0.418019
vt 0.892888 0.392888
vt 0.918019 0.362267
vt 0.936692 0.327331
vt 0.948192 0.289423
vt 0.952075 0.250000
vt 0.948192 0.210577
vt 0.936692 0.172669
vt 0.918019 0.137733
vt 0.892888 0.107112
vt 0.862267 0.081981
vt 0.827331 0.063307
vt 0.789423 0.051808
vt 0.750000 0.047925
vt 0.710577 0.051808
vt 0.672669 0.063307
vt 0.637733 0.081981
vt 0.607112 0.107112
vt 0.581981 0.137733
vt 0.563308 0.172669
vt 0.551808 0.210577
vt 0.547925 0.250000
vt 0.551808 0.289423
vt 0.563307 0.327331
vt 0.581981 0.362267
vt 0.607112 0.392888
vt 0.637733 0.418019
vt 0.672669 0.436693
vt 0.710577 0.448192
vt 0.750000 0.490000
vt 0.796822 0.485388
vt 0.841844 0.471731
vt 0.883337 0.449553
vt 0.919706 0.419706
vt 0.949553 0.383337
vt 0.971731 0.341844
vt 0.985388 0.296822
vt 0.990000 0.250000
vt 0.985388 0.203178
vt 0.971731 0.158156
vt 0.949553 0.116663
vt 0.919706 0.080294
vt 0.883337 0.050447
vt 0.841844 0.028269
vt 0.796822 0.014612
vt 0.750000 0.010000
vt 0.703178 0.014612
vt 0.658156 0.028269
vt 0.616663 0.050447
vt 0.580294 0.080294
vt 0.550447 0.116663
vt 0.528269 0.158156
vt 0.514612 0.203178
vt 0.510000 0.250000
vt 0.514612 0.296822
vt 0.528269 0.341844
vt 0.550447 0.383337
vt 0.580294 0.419706
vt 0.616663 0.449553
vt 0.658156 0.471731
vt 0.703178 0.485388
s 0
f 1/1/1 2/2/1 4/3/1 3/4/1
f 3/4/2 4/3/2 6/5/2 5/6/2
f 5/6/3 6/5/3 8/7/3 7/8/3
f 7/8/4 8/7/4 10/9/4 9/10/4
f 9/10/5 10/9/5 12/11/5 11/12/5
f 11/12/6 12/11/6 14/13/6 13/14/6
f 13/14/7 14/13/7 16/15/7 15/16/7
f 15/16/8 16/15/8 18/17/8 17/18/8
f 17/18/9 18/17/9 20/19/9 19/20/9
f 19/20/10 20/19/10 22/21/10 21/22/10
f 21/22/11 22/21/11 24/23/11 23/24/11
f 23/24/12 24/23/12 26/25/12 25/26/12
f 25/26/13 26/25/13 28/27/13 27/28/13
f 27/28/14 28/27/14 30/29/14 29/30/14
f 29/30/15 30/29/15 32/31/15 31/32/15
f 31/32/16 32/31/16 34/33/16 33/34/16
f 33/34/17 34/33/17 36/35/17 35/36/17
f 35/36/18 36/35/18 38/37/18 37/38/18
f 37/38/19 38/37/19 40/39/19 39/40/19
f 39/40/20 40/39/20 42/41/20 41/42/20
f 41/42/21 42/41/21 44/43/21 43/44/21
f 43/44/22 44/43/22 46/45/22 45/46/22
f 45/46/23 46/45/23 48/47/23 47/48/23
f 47/48/24 48/47/24 50/49/24 49/50/24
f 49/50/25 50/49/25 52/51/25 51/52/25
f 51/52/26 52/51/26 54/53/26 53/54/26
f 53/54/27 54/53/27 56/55/27 55/56/27
f 55/56/28 56/55/28 58/57/28 57/58/28
f 57/58/29 58/57/29 60/59/29 59/60/29
f 59/60/30 60/59/30 62/61/30 61/62/30
f 4/63/31 2/64/31 64/65/31 62/66/31 60/67/31 58/68/31 56/69/31 54/70/31 52/71/31 50/72/31 48/73/31 46/74/31 44/75/31 42/76/31 40/77/31 38/78/31 36/79/31 34/80/31 32/81/31 30/82/31 28/83/31 26/84/31 24/85/31 22/86/31 20/87/31 18/88/31 16/89/31 14/90/31 12/91/31 10/92/31 8/93/31 6/94/31
f 61/62/32 62/61/32 64/95/32 63/96/32
f 63/96/33 64/95/33 2/97/33 1/98/33
f 5/6/34 7/8/34 100/8/34 99/6/34
f 65/99/35 66/100/35 67/101/35 68/102/35 69/103/35 70/104/35 71/105/35 72/106/35 73/107/35 74/108/35 75/109/35 76/110/35 77/111/35 78/112/35 79/113/35 80/114/35 81/115/35 82/116/35 83/117/35 84/118/35 85/119/35 86/120/35 87/121/35 88/122/35 89/123/35 90/124/35 91/125/35 92/126/35 93/127/35 94/128/35 95/129/35 96/130/35
f 23/24/36 25/26/36 109/26/36 108/24/36
f 41/42/37 43/44/37 118/44/37 117/42/37
f 59/60/38 61/62/38 127/62/38 126/60/38
f 15/16/39 17/18/39 105/18/39 104/16/39
f 33/34/40 35/36/40 114/36/40 113/34/40
f 51/52/41 53/54/41 123/54/41 122/52/41
f 7/8/42 9/10/42 101/10/42 100/8/42
f 25/26/43 27/28/43 110/28/43 109/26/43
f 43/44/44 45/46/44 119/46/44 118/44/44
f 61/62/45 63/96/45 128/96/45 127/62/45
f 17/18/46 19/20/46 106/20/46 105/18/46
f 35/36/47 37/38/47 115/38/47 114/36/47
f 53/54/48 55/56/48 124/56/48 123/54/48
f 9/10/49 11/12/49 102/12/49 101/10/49
f 27/28/50 29/30/50 111/30/50 110/28/50
f 45/46/51 47/48/51 120/48/51 119/46/51
f 1/1/52 3/4/52 98/4/52 97/1/52
f 63/96/53 1/98/53 97/98/53 128/96/53
f 19/20/54 21/22/54 107/22/54 106/20/54
f 37/38/55 39/40/55 116/40/55 115/38/55
f 55/56/56 57/58/56 125/58/56 124/56/56
f 11/12/57 13/14/57 103/14/57 102/12/57
f 29/30/58 31/32/58 112/32/58 111/30/58
f 47/48/59 49/50/59 121/50/59 120/48/59
f 3/4/60 5/6/60 99/6/60 98/4/60
f 21/22/61 23/24/61 108/24/61 107/22/61
f 39/40/62 41/42/62 117/42/62 116/40/62
f 57/58/63 59/60/63 126/60/63 125/58/63
f 13/14/64 15/16/64 104/16/64 103/14/64
f 31/32/65 33/34/65 113/34/65 112/32/65
f 49/50/66 51/52/66 122/52/66 121/50/66
f 66/100/67 65/99/67 97/131/67 98/132/67
f 67/101/68 66/100/68 98/132/68 99/133/68
f 68/102/69 67/101/69 99/133/69 100/134/69
f 69/103/70 68/102/70 100/134/70 101/135/70
f 70/104/71 69/103/71 101/135/71 102/136/71
f 71/105/72 70/104/72 102/136/72 103/137/72
f 72/106/73 71/105/73 103/137/73 104/138/73
f 73/107/74 72/106/74 104/138/74 105/139/74
f 74/108/75 73/107/75 105/139/75 106/140/75
f 75/109/76 74/108/76 106/140/76 107/141/76
f 76/110/77 75/109/77 107/141/77 108/142/77
f 77/111/78 76/110/78 108/142/78 109/143/78
f 78/112/79 77/111/79 109/143/79 110/144/79
f 79/113/80 78/112/80 110/144/80 111/145/80
f 80/114/81 79/113/81 111/145/81 112/146/81
f 81/115/82 80/114/82 112/146/82 113/147/82
f 82/116/83 81/115/83 113/147/83 114/148/83
f 83/117/84 82/116/84 114/148/84 115/149/84
f 84/118/85 83/117/85 115/149/85 116/150/85
f 85/119/86 84/118/86 116/150/86 117/151/86
f 86/120/87 85/119/87 117/151/87 118/152/87
f 87/121/88 86/120/88 118/152/88 119/153/88
f 88/122/89 87/121/89 119/153/89 120/154/89
f 89/123/90 88/122/90 120/154/90 121/155/90
f 90/124/91 89/123/91 121/155/91 122/156/91
f 91/125/92 90/124/92 122/156/92 123/157/92
f 92/126/93 91/125/93 123/157/93 124/158/93
f 93/127/94 92/126/94 124/158/94 125/159/94
f 94/128/95 93/127/95 125/159/95 126/160/95
f 95/129/96 94/128/96 126/160/96 127/161/96
f 96/130/97 95/129/97 127/161/97 128/162/97
f 65/99/98 96/130/98 128/162/98 97/131/98
